<?xml version="1.0" standalone="no"?>
<!DOCTYPE svg PUBLIC "-//W3C//DTD SVG 20010904//EN"
 "http://www.w3.org/TR/2001/REC-SVG-20010904/DTD/svg10.dtd">
<svg version="1.0" xmlns="http://www.w3.org/2000/svg"
 width="512.000000pt" height="512.000000pt" viewBox="0 0 512.000000 512.000000"
 preserveAspectRatio="xMidYMid meet">

<g transform="translate(0.000000,512.000000) scale(0.100000,-0.100000)"
fill="#000000" stroke="none">
<path d="M1132 4893 c-7 -3 -19 -18 -27 -33 -12 -24 -15 -89 -15 -374 l0 -345
24 -27 c30 -36 86 -39 119 -6 22 22 22 26 25 355 2 182 0 347 -3 365 -10 57
-68 87 -123 65z"/>
<path d="M3292 4880 c-12 -11 -24 -31 -27 -43 -3 -12 -5 -176 -3 -364 3 -339
3 -343 25 -365 30 -30 86 -30 116 0 22 22 22 26 25 365 2 188 0 352 -3 364 -8
34 -45 63 -80 63 -18 0 -41 -9 -53 -20z"/>
<path d="M25 4545 l-25 -24 0 -1826 0 -1826 25 -24 24 -25 1480 0 1480 0 36
-60 c79 -130 226 -282 348 -362 450 -290 1047 -221 1414 166 272 286 375 692
272 1069 -25 88 -106 262 -156 331 -93 129 -219 249 -342 323 l-56 34 -5 1105
-5 1106 -24 19 c-22 18 -44 19 -436 19 l-413 0 -26 -31 c-29 -34 -31 -45 -16
-84 19 -51 48 -55 415 -55 l335 0 0 -1000 c0 -550 -2 -1000 -4 -1000 -3 0 -42
9 -88 21 -108 26 -302 36 -405 20 -306 -48 -555 -192 -733 -423 -211 -273
-287 -631 -201 -955 l19 -73 -1384 0 -1384 0 0 1705 0 1705 279 0 c178 0 289
4 310 11 37 13 65 60 55 92 -3 12 -16 32 -27 45 l-20 22 -359 0 -359 0 -24
-25z m4120 -2280 c214 -35 386 -125 537 -284 173 -180 260 -395 261 -641 0
-63 -6 -144 -12 -180 -63 -331 -308 -612 -627 -721 -119 -40 -208 -52 -349
-46 -430 18 -794 331 -881 758 -24 122 -16 323 20 442 120 403 481 677 901
686 33 0 101 -6 150 -14z"/>
<path d="M3949 2081 c-21 -17 -25 -30 -29 -112 l-5 -93 -48 -12 c-88 -22 -159
-65 -233 -138 -39 -39 -82 -93 -96 -121 -52 -103 -58 -144 -58 -404 l0 -241
-45 0 c-88 0 -137 -52 -113 -120 19 -56 39 -60 333 -60 l265 0 0 -83 c0 -75 2
-86 24 -106 16 -15 37 -23 61 -23 24 0 45 8 61 23 22 20 24 31 24 105 l0 83
275 3 c262 3 275 4 295 24 11 11 23 36 26 55 5 28 1 41 -18 64 -21 24 -34 29
-86 33 l-62 4 0 242 c0 270 -5 299 -67 419 -59 112 -183 209 -310 241 l-48 12
-5 93 c-4 82 -8 95 -29 112 -13 10 -38 19 -56 19 -18 0 -43 -9 -56 -19z m191
-408 c104 -46 177 -141 199 -258 6 -32 11 -148 11 -257 l0 -198 -351 0 -351 0
4 233 c4 210 7 237 27 288 72 185 281 272 461 192z"/>
<path d="M1529 4557 c-43 -33 -49 -84 -15 -124 l24 -28 689 -3 c486 -2 699 0
726 8 69 20 83 104 25 144 -20 14 -97 16 -728 16 -538 -1 -709 -4 -721 -13z"/>
<path d="M579 3530 c-9 -5 -22 -23 -29 -40 -15 -35 0 -84 31 -100 11 -6 636
-10 1682 -10 l1664 0 21 23 c30 32 29 87 -1 115 l-23 22 -1665 0 c-1027 0
-1670 -4 -1680 -10z"/>
<path d="M579 2870 c-9 -5 -22 -23 -29 -40 -15 -35 0 -84 31 -100 11 -6 499
-10 1302 -10 l1284 0 21 23 c30 32 29 87 -1 115 l-23 22 -1285 0 c-788 0
-1290 -4 -1300 -10z"/>
<path d="M579 2220 c-9 -5 -22 -23 -29 -40 -15 -35 0 -84 31 -100 11 -6 303
-10 757 -10 l739 0 21 23 c30 32 29 87 -1 115 l-23 22 -740 0 c-446 0 -745 -4
-755 -10z"/>
</g>
</svg>
